<?xml version="1.0" encoding="UTF-8"?>
<svg id="Layer_1" data-name="Layer 1" xmlns="http://www.w3.org/2000/svg" xmlns:xlink="http://www.w3.org/1999/xlink" viewBox="0 0 1155.16 368.49">
  <defs>
    <style>
      .cls-1 {
        fill: url(#linear-gradient-2);
      }

      .cls-2 {
        fill: #c5c5c5;
      }

      .cls-3 {
        fill: #c9c9c9;
      }

      .cls-4 {
        fill: url(#linear-gradient-4);
      }

      .cls-5 {
        fill: url(#radial-gradient);
      }

      .cls-6 {
        fill: url(#linear-gradient-3);
      }

      .cls-7 {
        fill: url(#linear-gradient-5);
      }

      .cls-8 {
        fill: url(#linear-gradient-7);
      }

      .cls-9 {
        fill: url(#linear-gradient-6);
      }

      .cls-10 {
        fill: url(#linear-gradient-8);
      }

      .cls-10, .cls-11 {
        fill-rule: evenodd;
      }

      .cls-11 {
        fill: url(#linear-gradient);
      }

      .cls-12 {
        fill: #f7f7f7;
      }
    </style>
    <radialGradient id="radial-gradient" cx="577.58" cy="127.58" fx="577.58" fy="127.58" r="218.49" gradientUnits="userSpaceOnUse">
      <stop offset="0" stop-color="#020202"/>
      <stop offset="1" stop-color="#bdbdbd"/>
    </radialGradient>
    <linearGradient id="linear-gradient" x1="453.92" y1="130.22" x2="694.48" y2="130.22" gradientUnits="userSpaceOnUse">
      <stop offset="0" stop-color="#020202"/>
      <stop offset="1" stop-color="#bdbdbd"/>
    </linearGradient>
    <linearGradient id="linear-gradient-2" x1="361.92" y1="168.15" x2="443.03" y2="168.15" gradientUnits="userSpaceOnUse">
      <stop offset=".2" stop-color="#020202"/>
      <stop offset=".5" stop-color="#32a0b7"/>
      <stop offset=".98" stop-color="#fff"/>
    </linearGradient>
    <linearGradient id="linear-gradient-3" x1="317.22" y1="87.38" y2="87.38" xlink:href="#linear-gradient-2"/>
    <linearGradient id="linear-gradient-4" x1="339.57" y1="127.76" y2="127.76" xlink:href="#linear-gradient-2"/>
    <linearGradient id="linear-gradient-5" x1="834.83" y1="87.38" x2="709.03" y2="87.38" xlink:href="#linear-gradient-2"/>
    <linearGradient id="linear-gradient-6" x1="812.48" y1="127.76" x2="709.03" y2="127.76" xlink:href="#linear-gradient-2"/>
    <linearGradient id="linear-gradient-7" x1="790.14" x2="709.03" xlink:href="#linear-gradient-2"/>
    <linearGradient id="linear-gradient-8" x1="577.58" y1="241.83" x2="577.58" y2="13.33" gradientUnits="userSpaceOnUse">
      <stop offset=".1" stop-color="#fff"/>
      <stop offset=".38" stop-color="#4c4c4c"/>
      <stop offset=".44" stop-color="#d19703"/>
      <stop offset=".68" stop-color="#dedede"/>
      <stop offset=".87" stop-color="#fff"/>
    </linearGradient>
  </defs>
  <g>
    <g>
      <path class="cls-3" d="M839.93,42.17h-3.12v-15.25h9.58c3.46,0,5.8,1.66,5.8,4.8,0,2.33-1.36,3.89-3.52,4.48l3.89,5.97h-3.59l-3.59-5.67h-5.44v5.67ZM846.22,33.89c1.82,0,2.87-.79,2.87-2.15s-1.04-2.17-2.87-2.17h-6.29v4.31h6.29Z"/>
      <path class="cls-2" d="M839.93,42.17h-3.12v-15.25h9.58c3.46,0,5.8,1.66,5.8,4.8,0,2.33-1.36,3.89-3.52,4.48l3.89,5.97h-3.59l-3.59-5.67h-5.44v5.67ZM846.22,33.89c1.82,0,2.87-.79,2.87-2.15s-1.04-2.17-2.87-2.17h-6.29v4.31h6.29Z"/>
    </g>
    <path class="cls-2" d="M843.69,51.04c-9.1,0-16.5-7.4-16.5-16.5s7.4-16.5,16.5-16.5,16.5,7.4,16.5,16.5-7.4,16.5-16.5,16.5ZM843.69,20.21c-7.91,0-14.34,6.43-14.34,14.34s6.43,14.34,14.34,14.34,14.34-6.43,14.34-14.34-6.43-14.34-14.34-14.34Z"/>
  </g>
  <g>
    <g>
      <path class="cls-12" d="M0,367.56v-53.98h18.74c8.43,0,15.32,2.56,20.66,7.67,5.35,5.12,8.02,11.55,8.02,19.32s-2.69,14.14-8.06,19.28c-5.37,5.14-12.25,7.71-20.63,7.71H0ZM6.09,361.93h12.65c6.73,0,12.14-2.02,16.23-6.05,4.09-4.04,6.13-9.14,6.13-15.31s-2.06-11.21-6.17-15.27c-4.11-4.06-9.51-6.09-16.19-6.09H6.09v42.72Z"/>
      <path class="cls-12" d="M96.31,367.56v-53.98h6.09v53.98h-6.09Z"/>
      <path class="cls-12" d="M172.26,367.95l-23.21-54.36h6.79l19.2,46.5,19.28-46.5h6.55l-23.21,54.36h-5.4Z"/>
      <path class="cls-12" d="M247.52,367.56v-53.98h6.09v53.98h-6.09Z"/>
      <path class="cls-12" d="M329.94,368.49c-8.28,0-14.92-2.66-19.93-7.98-5.01-5.32-7.52-11.96-7.52-19.93s2.55-14.16,7.63-19.66c5.09-5.5,11.57-8.25,19.43-8.25,4.32,0,8.03.59,11.14,1.77,3.11,1.18,6.1,2.98,8.98,5.4l-3.93,4.63c-4.73-4.11-10.2-6.17-16.42-6.17s-10.81,2.17-14.69,6.52c-3.88,4.35-5.82,9.6-5.82,15.77,0,6.53,1.94,11.9,5.82,16.12,3.88,4.21,9.06,6.32,15.54,6.32,5.96,0,11.15-1.8,15.58-5.4v-13.42h-16.42v-5.47h22.29v21.51c-6.17,5.5-13.39,8.25-21.67,8.25Z"/>
      <path class="cls-12" d="M400.81,367.56v-53.98h5.71l34,43.26v-43.26h5.94v53.98h-4.86l-34.85-44.26v44.26h-5.94Z"/>
      <path class="cls-12" d="M497.19,367.56v-53.98h39.02v5.55h-32.93v18.43h29.46v5.55h-29.46v18.89h33.31v5.55h-39.4Z"/>
      <path class="cls-12" d="M584.32,367.56v-53.98h23.21c6.63,0,11.75,1.8,15.35,5.4,2.78,2.78,4.16,6.38,4.16,10.8s-1.34,7.81-4.01,10.49c-2.67,2.67-6.22,4.42-10.64,5.24l16.58,22.05h-7.48l-15.65-20.97h-15.42v20.97h-6.09ZM590.42,341.11h16.58c4.11,0,7.45-1,10.02-3.01,2.57-2,3.86-4.75,3.86-8.25s-1.22-5.95-3.66-7.83c-2.44-1.88-5.82-2.81-10.14-2.81h-16.66v21.9Z"/>
      <path class="cls-12" d="M757.66,368.49c-8.28,0-14.92-2.66-19.93-7.98-5.01-5.32-7.52-11.96-7.52-19.93s2.55-14.16,7.63-19.66c5.09-5.5,11.57-8.25,19.43-8.25,4.32,0,8.03.59,11.14,1.77,3.11,1.18,6.1,2.98,8.98,5.4l-3.93,4.63c-4.73-4.11-10.2-6.17-16.42-6.17s-10.81,2.17-14.69,6.52c-3.88,4.35-5.82,9.6-5.82,15.77,0,6.53,1.94,11.9,5.82,16.12,3.88,4.21,9.06,6.32,15.54,6.32,5.96,0,11.15-1.8,15.58-5.4v-13.42h-16.42v-5.47h22.29v21.51c-6.17,5.5-13.39,8.25-21.67,8.25Z"/>
      <path class="cls-12" d="M828.53,367.56v-53.98h23.21c6.63,0,11.75,1.8,15.35,5.4,2.78,2.78,4.16,6.38,4.16,10.8s-1.34,7.81-4.01,10.49c-2.67,2.67-6.22,4.42-10.64,5.24l16.58,22.05h-7.48l-15.65-20.97h-15.42v20.97h-6.09ZM834.62,341.11h16.58c4.11,0,7.45-1,10.02-3.01,2.57-2,3.86-4.75,3.86-8.25s-1.22-5.95-3.66-7.83c-2.44-1.88-5.82-2.81-10.14-2.81h-16.66v21.9Z"/>
      <path class="cls-12" d="M964.62,360.28c-5.19,5.47-11.8,8.21-19.82,8.21s-14.6-2.72-19.74-8.17c-5.14-5.45-7.71-12.03-7.71-19.74s2.6-14.23,7.79-19.7c5.19-5.47,11.8-8.21,19.82-8.21s14.6,2.73,19.74,8.17c5.14,5.45,7.71,12.03,7.71,19.74s-2.6,14.23-7.79,19.7ZM929.73,356.38c4.03,4.32,9.11,6.48,15.23,6.48s11.17-2.15,15.15-6.44c3.98-4.29,5.98-9.57,5.98-15.84s-2.02-11.49-6.05-15.81c-4.04-4.32-9.11-6.48-15.23-6.48s-11.17,2.15-15.15,6.44c-3.98,4.29-5.98,9.58-5.98,15.85s2.02,11.49,6.05,15.81Z"/>
      <path class="cls-12" d="M1042.35,368.41c-6.84,0-12.29-2.04-16.35-6.13-4.06-4.09-6.09-9.86-6.09-17.31v-31.38h6.09v31c0,5.81,1.45,10.29,4.36,13.46,2.9,3.16,6.95,4.74,12.14,4.74s9.07-1.51,11.95-4.55c2.88-3.03,4.32-7.45,4.32-13.26v-31.38h6.09v30.92c0,7.71-2.03,13.62-6.09,17.73-4.06,4.11-9.54,6.17-16.42,6.17Z"/>
      <path class="cls-12" d="M1114.75,367.56v-53.98h20.2c6.17,0,11.08,1.54,14.73,4.63,3.65,3.08,5.47,7.3,5.47,12.65s-2.02,9.95-6.05,13.03c-4.04,3.08-9.09,4.63-15.15,4.63h-13.11v19.05h-6.09ZM1120.84,342.97h13.34c4.47,0,8.06-1.09,10.76-3.28,2.7-2.18,4.05-5.1,4.05-8.75s-1.3-6.64-3.89-8.68c-2.6-2.03-6.13-3.05-10.6-3.05h-13.65v23.75Z"/>
    </g>
    <path class="cls-5" d="M836.65,100.76l22.35-40.39h-152.54l2.99-3.51-10.28-8.63c-11.94-10.02-24.62-17.62-37.69-22.59-13.19-5.01-28.92-7.56-46.73-7.56-5.66,0-11.27.36-16.75,1.08-19.69-12.73-43.23-19.17-70.08-19.17h-83.95v60.38h-147.8l22.35,40.39h0l22.35,40.39h0l27.45,49.6h75.65v39.34h83.95c4.28,0,8.52-.17,12.66-.5,20.16,16.97,45.57,25.57,75.62,25.57,34.42,0,64.88-11.6,90.54-34.48l4.46-3.98v-25.96h75.66l27.45-49.6h0l22.35-40.39h0ZM531.72,53.47c-21.44,23.18-32.32,51.16-32.32,83.16,0,16.41,2.62,31.67,7.8,45.59h-13.62V47.88h34.33c3.05,0,6.02.13,8.92.4-1.75,1.67-3.45,3.4-5.11,5.19ZM667.03,85.95l10.17,8.84,20.05-23.59v45.12h-47.9c0-.42,0-.85,0-1.28,0-16.08-2.79-30.97-8.31-44.54,9.3,3.3,17.91,8.42,25.98,15.44ZM579.72,163.25c-5.87,5.8-12.49,10.19-20.06,13.3-6.56-11.25-9.77-24.4-9.77-39.92,0-20.04,6.07-36.58,18.55-50.55,4.99-5.59,10.43-9.95,16.48-13.18,9.37,11.67,13.94,25.53,13.94,42.15,0,19.72-6.26,35.49-19.14,48.2ZM662.44,194.22c-13.16,9.17-28.07,13.64-45.38,13.64-4.75,0-9.24-.34-13.48-1.02,3.94-2.91,7.71-6.08,11.29-9.52,10.44-9.99,18.6-21.3,24.33-33.72h23.24v30.61Z"/>
    <path class="cls-11" d="M694.48,213.38c-23.25,20.73-50.47,31.1-81.66,31.1-29.05,0-52.75-8.7-71.13-26.09-5.52.68-11.24,1.02-17.15,1.02h-70.62V15.97h70.62c26.29,0,48.58,6.62,66.91,19.81,6.36-1.13,12.98-1.72,19.91-1.72,16.27,0,30.27,2.23,41.99,6.68,11.72,4.46,23,11.24,33.86,20.34l-14.82,17.44c-17.45-15.17-37.62-22.87-60.45-23.19,13.79,17.37,20.7,38.15,20.7,62.35,0,5.02-.32,9.88-.93,14.6h62.76v81.08ZM585.57,60.15c-.22-.21-.46-.39-.67-.6-11.23,3.97-21.18,10.68-29.76,20.29-14.63,16.37-21.94,36.18-21.94,59.43s5.95,40.66,17.75,55.72c13.54-3.56,25.13-10.1,34.77-19.62,15.4-15.21,23.1-34.44,23.1-57.69s-7.75-42.24-23.25-57.54ZM524.54,37.19h-47.66v161h47.66c.21,0,.4-.02.61-.02-10.52-16.85-15.79-36.48-15.79-58.9,0-28.67,9.59-53.37,28.77-74.11,7.72-8.35,16.31-14.99,25.74-19.97-11.45-5.28-24.53-8-39.33-8ZM672.4,152.93h-45.52c-4.98,14.01-13.18,26.49-24.6,37.42-9.78,9.36-20.91,16.44-33.34,21.28,12.44,8.09,27.32,12.22,44.75,12.22,22.47,0,42.04-6.78,58.71-20.34v-50.57Z"/>
    <g>
      <polygon class="cls-1" points="374.62 179.62 443.03 179.62 443.03 156.68 361.92 156.68 374.62 179.62"/>
      <polygon class="cls-6" points="317.22 75.91 329.92 98.85 443.03 98.85 443.03 75.91 317.22 75.91"/>
      <polygon class="cls-4" points="352.27 139.24 443.03 139.24 443.03 116.29 339.57 116.29 352.27 139.24"/>
    </g>
    <g>
      <polygon class="cls-7" points="834.83 75.91 709.03 75.91 709.03 98.85 822.13 98.85 834.83 75.91"/>
      <polygon class="cls-9" points="812.48 116.29 709.03 116.29 709.03 139.24 799.79 139.24 812.48 116.29"/>
      <polygon class="cls-8" points="790.14 156.68 709.03 156.68 709.03 179.62 777.44 179.62 790.14 156.68"/>
    </g>
    <path class="cls-10" d="M697.86,210.74c-23.25,20.73-50.47,31.1-81.66,31.1-29.05,0-52.75-8.7-71.13-26.09-5.52.68-11.24,1.02-17.15,1.02h-70.62V13.33h70.62c26.29,0,48.58,6.62,66.91,19.81,6.36-1.13,12.98-1.72,19.91-1.72,16.27,0,30.27,2.23,41.99,6.68,11.72,4.46,23,11.24,33.86,20.34l-14.82,17.44c-17.45-15.17-37.62-22.87-60.45-23.19,13.79,17.37,20.7,38.15,20.7,62.35,0,5.02-.32,9.88-.93,14.6h62.76v81.08ZM588.95,57.5c-.22-.21-.46-.39-.67-.6-11.23,3.97-21.18,10.68-29.76,20.29-14.63,16.37-21.94,36.18-21.94,59.43s5.95,40.66,17.75,55.72c13.54-3.56,25.13-10.1,34.77-19.62,15.4-15.21,23.1-34.44,23.1-57.69s-7.75-42.24-23.25-57.54ZM527.92,34.55h-47.66v161h47.66c.21,0,.4-.02.61-.02-10.52-16.85-15.79-36.48-15.79-58.9,0-28.67,9.59-53.37,28.77-74.11,7.72-8.35,16.31-14.99,25.74-19.97-11.45-5.28-24.53-8-39.33-8ZM675.77,150.29h-45.52c-4.98,14.01-13.18,26.49-24.6,37.42-9.78,9.36-20.91,16.44-33.34,21.28,12.44,8.09,27.32,12.22,44.75,12.22,22.47,0,42.04-6.78,58.71-20.34v-50.57Z"/>
  </g>
</svg>