<?xml version="1.0" encoding="UTF-8"?>
<svg id="Layer_1" data-name="Layer 1" xmlns="http://www.w3.org/2000/svg" xmlns:xlink="http://www.w3.org/1999/xlink" viewBox="0 0 41.41 52.7">
  <defs>
    <style>
      .cls-1 {
        fill: url(#linear-gradient-2);
      }

      .cls-2 {
        fill: #fff;
      }

      .cls-3 {
        fill: url(#linear-gradient-3);
      }

      .cls-4 {
        fill: url(#linear-gradient);
      }
    </style>
    <linearGradient id="linear-gradient" x1="6.67" y1="34.68" x2="39" y2="8.8" gradientUnits="userSpaceOnUse">
      <stop offset="0" stop-color="#29aa59"/>
      <stop offset=".28" stop-color="#06d787"/>
      <stop offset=".73" stop-color="#00ce72"/>
      <stop offset="1" stop-color="#50a28e"/>
    </linearGradient>
    <linearGradient id="linear-gradient-2" x1="5.52" y1="23.52" x2="26.14" y2="33.73" gradientUnits="userSpaceOnUse">
      <stop offset="0" stop-color="#00dd8e"/>
      <stop offset=".97" stop-color="#29aa59"/>
    </linearGradient>
    <linearGradient id="linear-gradient-3" x1="11.02" y1="8.26" x2="34.78" y2="23.88" gradientUnits="userSpaceOnUse">
      <stop offset="0" stop-color="#00d67a"/>
      <stop offset=".97" stop-color="#4b776a"/>
    </linearGradient>
  </defs>
  <path class="cls-4" d="M20.7,0C9.29,0,0,9.29,0,20.7c0,14.72,18.71,30.34,19.5,31l1.21,1,1.2-1c.8-.66,19.5-16.34,19.5-30.99C41.41,9.29,32.12,0,20.7,0Z"/>
  <circle class="cls-2" cx="20.7" cy="21.13" r="17.46"/>
  <g>
    <circle class="cls-2" cx="20.7" cy="21.13" r="14.58"/>
    <g>
      <path class="cls-1" d="M11.46,21.3l-3.2,7.33s-.02-.03-.03-.05c-.11-.17-.2-.34-.3-.51-.19-.35-.37-.7-.53-1.06h0c-.08-.19-.16-.37-.23-.55-.08-.19-.14-.37-.21-.56-.07-.19-.13-.39-.2-.59-.06-.18-.1-.37-.15-.56,0,0-.01-.02-.01-.03-.05-.19-.09-.38-.13-.57-.05-.2-.08-.4-.12-.6-.03-.16-.06-.31-.08-.47-.03-.25-.06-.51-.08-.76-.01-.15-.03-.31-.03-.47-.01-.26-.02-.52-.02-.78,0-.07,0-.14,0-.21,1.46-.02,3.29.08,5.33.46ZM15.67,22.44l-4.29,9.82c.18.15.37.3.56.44,2.43,1.84,5.47,2.93,8.77,2.93s6.05-1,8.43-2.69c-3.66-5.09-8.18-8.61-13.47-10.51Z"/>
      <path class="cls-3" d="M13.16,17.24c-2.36-.51-4.52-.69-6.31-.72.1-.31.21-.61.33-.91.32-.81.71-1.58,1.17-2.31.13-.21.26-.41.41-.61.1-.13.19-.28.31-.41,0-.03.03-.05.05-.07,0-.02.03-.05.06-.07.06-.08.12-.16.19-.24.06-.08.12-.16.19-.23,0,0,0,0,0-.01.04-.06.09-.11.15-.17,0,0,0-.01.01-.02.14-.17.3-.34.46-.51.32-.34.65-.66,1-.96.12-.1.24-.2.35-.29.08-.08.17-.14.25-.2.12-.1.26-.2.39-.29.51-.37,1.04-.71,1.59-1,.12-.06.24-.12.36-.19.25-.13.5-.24.76-.35.24-.11.48-.21.73-.31.01,0,.03,0,.04-.01.26-.1.53-.19.8-.26.27-.08.54-.16.81-.22.18-.04.36-.08.54-.12l-4.58,10.49s-.05-.01-.07-.02ZM25.04,22.66l-4.73-10.84-2.91,6.67c2.42.91,5.04,2.23,7.65,4.17ZM32.36,12.29c-.28-.36-.56-.71-.87-1.05-.54-.59-1.12-1.14-1.75-1.63-.14-.11-.28-.22-.43-.32-.1-.08-.19-.15-.3-.22-1.18-.82-2.48-1.47-3.87-1.91-.15-.05-.31-.1-.46-.14-.03-.01-.06-.02-.1-.03-.17-.05-.33-.09-.51-.12-.36-.09-.72-.16-1.09-.21-.08-.01-.15-.03-.23-.04l9.94,22.75s.04-.06.06-.09c.71-1.03,1.28-2.16,1.71-3.36.1-.3.2-.6.29-.91.35-1.25.54-2.58.54-3.94,0-3.29-1.1-6.33-2.93-8.77Z"/>
    </g>
  </g>
</svg>