<?xml version="1.0" encoding="UTF-8"?>
<svg id="Layer_1" data-name="Layer 1" xmlns="http://www.w3.org/2000/svg" viewBox="0 0 266.02 52.7">
  <defs>
    <style>
      .cls-1 {
        fill: #f7f7f7;
      }
    </style>
  </defs>
  <g>
    <g>
      <path class="cls-1" d="M263.57,27.82c.46-.12.75-.45.75-.95,0-.66-.5-1.02-1.23-1.02h-2.03v3.24h.66v-1.2h1.16l.75,1.2h.76l-.82-1.27ZM263.06,27.33h-1.34v-.91h1.34c.38,0,.6.17.6.46s-.22.45-.6.45Z"/>
      <g>
        <path class="cls-1" d="M263.57,27.82c.46-.12.75-.45.75-.95,0-.66-.5-1.02-1.23-1.02h-2.03v3.24h.66v-1.2h1.16l.75,1.2h.76l-.82-1.27ZM263.06,27.33h-1.34v-.91h1.34c.38,0,.6.17.6.46s-.22.45-.6.45ZM263.57,27.82c.46-.12.75-.45.75-.95,0-.66-.5-1.02-1.23-1.02h-2.03v3.24h.66v-1.2h1.16l.75,1.2h.76l-.82-1.27ZM263.06,27.33h-1.34v-.91h1.34c.38,0,.6.17.6.46s-.22.45-.6.45ZM263.57,27.82c.46-.12.75-.45.75-.95,0-.66-.5-1.02-1.23-1.02h-2.03v3.24h.66v-1.2h1.16l.75,1.2h.76l-.82-1.27ZM263.06,27.33h-1.34v-.91h1.34c.38,0,.6.17.6.46s-.22.45-.6.45ZM263.57,27.82c.46-.12.75-.45.75-.95,0-.66-.5-1.02-1.23-1.02h-2.03v3.24h.66v-1.2h1.16l.75,1.2h.76l-.82-1.27ZM263.06,27.33h-1.34v-.91h1.34c.38,0,.6.17.6.46s-.22.45-.6.45ZM262.52,23.97c-1.94,0-3.5,1.57-3.5,3.5s1.56,3.5,3.5,3.5,3.5-1.57,3.5-3.5-1.57-3.5-3.5-3.5ZM262.52,30.52c-1.68,0-3.05-1.37-3.05-3.05s1.37-3.04,3.05-3.04,3.04,1.37,3.04,3.04-1.37,3.05-3.04,3.05ZM264.32,26.87c0-.66-.5-1.02-1.23-1.02h-2.03v3.24h.66v-1.2h1.16l.75,1.2h.76l-.82-1.27c.46-.12.75-.45.75-.95ZM263.06,27.33h-1.34v-.91h1.34c.38,0,.6.17.6.46s-.22.45-.6.45ZM263.57,27.82c.46-.12.75-.45.75-.95,0-.66-.5-1.02-1.23-1.02h-2.03v3.24h.66v-1.2h1.16l.75,1.2h.76l-.82-1.27ZM263.06,27.33h-1.34v-.91h1.34c.38,0,.6.17.6.46s-.22.45-.6.45ZM263.57,27.82c.46-.12.75-.45.75-.95,0-.66-.5-1.02-1.23-1.02h-2.03v3.24h.66v-1.2h1.16l.75,1.2h.76l-.82-1.27ZM263.06,27.33h-1.34v-.91h1.34c.38,0,.6.17.6.46s-.22.45-.6.45ZM263.57,27.82c.46-.12.75-.45.75-.95,0-.66-.5-1.02-1.23-1.02h-2.03v3.24h.66v-1.2h1.16l.75,1.2h.76l-.82-1.27ZM263.06,27.33h-1.34v-.91h1.34c.38,0,.6.17.6.46s-.22.45-.6.45ZM263.57,27.82c.46-.12.75-.45.75-.95,0-.66-.5-1.02-1.23-1.02h-2.03v3.24h.66v-1.2h1.16l.75,1.2h.76l-.82-1.27ZM263.06,27.33h-1.34v-.91h1.34c.38,0,.6.17.6.46s-.22.45-.6.45Z"/>
        <path class="cls-1" d="M263.57,27.82c.46-.12.75-.45.75-.95,0-.66-.5-1.02-1.23-1.02h-2.03v3.24h.66v-1.2h1.16l.75,1.2h.76l-.82-1.27ZM263.06,27.33h-1.34v-.91h1.34c.38,0,.6.17.6.46s-.22.45-.6.45Z"/>
      </g>
    </g>
    <g>
      <path class="cls-1" d="M72.23,25.6v-9.06c0-5.12-3.77-7.86-10.4-7.86-5.2,0-9.91,2.37-11.27,5.98l4.07,1.8c.81-2.09,3.71-3.61,7.04-3.61,4.01,0,5.81,1.56,5.81,3.61v.17l-9.34,1.1c-5.16.61-8.27,2.87-8.27,6.63,0,4.43,3.98,6.68,8.93,6.68,4.02,0,7.33-1.39,9.26-3.36.69,2.13,2.78,3.85,7.37,2.91v-3.8c-2.62.56-3.2.03-3.2-1.19ZM67.48,22.28c0,3.15-4.58,4.79-8.27,4.79-2.83,0-4.55-.94-4.55-2.74s1.44-2.51,4.31-2.83l8.51-1.02v1.8Z"/>
      <polygon class="cls-1" points="84.65 30.59 73.96 9.08 79.4 9.08 87.19 25.18 94.93 9.08 100.25 9.08 89.6 30.59 84.65 30.59"/>
      <path class="cls-1" d="M122,25.6v-9.06c0-5.12-3.77-7.86-10.4-7.86-5.2,0-9.91,2.37-11.27,5.98l4.06,1.8c.82-2.09,3.72-3.61,7.05-3.61,4.01,0,5.81,1.56,5.81,3.61v.17l-9.34,1.1c-5.16.61-8.27,2.87-8.27,6.63,0,4.43,3.98,6.68,8.93,6.68,4.02,0,7.33-1.39,9.26-3.36.69,2.13,2.78,3.85,7.37,2.91v-3.8c-2.62.56-3.2.03-3.2-1.19ZM117.25,22.28c0,3.15-4.58,4.79-8.27,4.79-2.83,0-4.55-.94-4.55-2.74s1.44-2.51,4.31-2.83l8.51-1.02v1.8Z"/>
      <path class="cls-1" d="M127.74,9.08h4.91v2.83c1.52-1.76,4.22-3.24,7.95-3.24,5.98,0,9.34,4.18,9.34,10.2v11.71h-4.91v-10.9c0-3.81-1.97-6.51-5.94-6.51-4.18,0-6.43,2.62-6.43,6.59v10.81h-4.91V9.08Z"/>
      <path class="cls-1" d="M177.18,19.58c0-6.19-4.46-10.9-11.55-10.9s-12.41,4.87-12.41,11.18c0,6.64,5.24,11.18,12.41,11.18,5.78,0,9.83-3.15,11.14-6.51l-3.93-2.09c-1.02,2.62-3.65,4.43-7.21,4.43-4.02,0-7.09-2.14-7.75-5.58h19.3v-1.71ZM158.1,17.61c.93-3.15,3.88-4.83,7.28-4.83,4.06,0,6.72,2.58,7.05,4.83h-14.33Z"/>
      <polygon class="cls-1" points="197.95 9.08 203.48 24.48 209.05 9.08 214.08 9.08 205.65 30.59 201.39 30.59 195.73 15.55 190.12 30.59 185.86 30.59 177.38 9.08 182.59 9.08 188.28 24.48 193.77 9.08 197.95 9.08"/>
      <rect class="cls-1" x="213.68" y="24.65" width="5.94" height="5.94"/>
      <path class="cls-1" d="M244.65,25.6v-9.06c0-5.12-3.78-7.86-10.41-7.86-5.21,0-9.91,2.37-11.26,5.98l4.05,1.8c.82-2.09,3.73-3.61,7.04-3.61,4.02,0,5.83,1.56,5.83,3.61v.17l-9.34,1.1c-5.17.61-8.28,2.87-8.28,6.63,0,4.43,3.97,6.68,8.92,6.68,4.02,0,7.34-1.39,9.26-3.36.7,2.13,2.79,3.85,7.38,2.91v-3.8c-2.62.56-3.19.03-3.19-1.19ZM239.9,22.28c0,3.15-4.6,4.79-8.28,4.79-2.83,0-4.55-.94-4.55-2.74s1.44-2.51,4.3-2.83l8.53-1.02v1.8Z"/>
      <g>
        <rect class="cls-1" x="250.3" y="1.18" width="5.08" height="5.04"/>
        <rect class="cls-1" x="250.38" y="9.08" width="4.92" height="21.5"/>
      </g>
    </g>
    <g>
      <polygon class="cls-1" points="49.24 37.45 50.28 37.45 52.61 41.2 54.89 37.45 55.94 37.45 53.07 42.19 53.07 46.54 52.17 46.54 52.17 42.19 49.24 37.45"/>
      <path class="cls-1" d="M67.21,38.61c-.93-.93-2.08-1.38-3.46-1.38-.84,0-1.63.21-2.37.63-.72.42-1.3,1-1.72,1.75-.43.74-.64,1.56-.64,2.42,0,1.32.47,2.43,1.39,3.35.94.93,2.07,1.4,3.42,1.4s2.46-.47,3.38-1.4c.93-.93,1.39-2.05,1.39-3.38s-.46-2.48-1.39-3.39ZM67.16,43.97c-.34.59-.8,1.06-1.4,1.4-.61.35-1.26.51-1.96.51-1.06,0-1.96-.36-2.72-1.11-.74-.74-1.11-1.66-1.11-2.74,0-.72.17-1.39.5-1.98.34-.6.81-1.07,1.41-1.41.6-.36,1.24-.53,1.92-.53s1.33.17,1.93.53c.62.34,1.09.81,1.43,1.39.33.59.5,1.24.5,1.96s-.17,1.39-.5,1.98Z"/>
      <path class="cls-1" d="M72.44,37.45h.91v5.49c0,.65.01,1.06.04,1.22.05.36.15.66.31.9.16.24.42.44.76.61.34.16.69.24,1.03.24.3,0,.59-.06.86-.19.28-.13.51-.3.69-.53.19-.23.32-.5.41-.82.06-.23.09-.7.09-1.42v-5.49h.91v5.49c0,.81-.08,1.47-.24,1.97s-.48.94-.95,1.31-1.05.56-1.73.56c-.73,0-1.36-.18-1.88-.52-.52-.35-.87-.81-1.05-1.39-.11-.35-.17-.99-.17-1.92v-5.49Z"/>
      <path class="cls-1" d="M85.28,42.32c.75,0,1.35-.1,1.79-.29.43-.2.77-.47,1-.85.23-.38.34-.82.34-1.3,0-.61-.16-1.1-.51-1.51-.33-.4-.77-.67-1.31-.79-.36-.09-1.04-.13-2.05-.13h-1.81v9.09h.91v-4.22h.51l3.27,4.22h1.13l-3.27-4.22ZM83.64,41.43v-3.09h1.6c.63,0,1.07.05,1.34.17.27.11.49.29.64.53.17.25.26.52.26.84s-.09.59-.25.84c-.16.26-.38.44-.69.56-.28.11-.73.16-1.33.16h-1.57Z"/>
      <path class="cls-1" d="M101.55,37.45h-.23l-4.29,9.09h1.01l1.43-2.99h3.9l1.44,2.99h.98l-4.24-9.09ZM99.88,42.68l1.56-3.29,1.54,3.29h-3.1Z"/>
      <polygon class="cls-1" points="108.49 37.45 109.48 37.45 112.49 44.47 115.55 37.45 116.54 37.45 112.59 46.54 112.39 46.54 108.49 37.45"/>
      <polygon class="cls-1" points="120.06 37.45 125.27 37.45 125.27 38.34 120.97 38.34 120.97 41.19 125.23 41.19 125.23 42.08 120.97 42.08 120.97 45.65 125.23 45.65 125.23 46.54 120.06 46.54 120.06 37.45"/>
      <polygon class="cls-1" points="128.83 46.54 128.83 37.45 129.03 37.45 135.07 44.42 135.07 37.45 135.97 37.45 135.97 46.54 135.77 46.54 129.77 39.66 129.77 46.54 128.83 46.54"/>
      <path class="cls-1" d="M140.2,37.45h.91v5.49c0,.65.01,1.06.04,1.22.05.36.15.66.31.9.16.24.42.44.76.61.34.16.69.24,1.03.24.3,0,.59-.06.86-.19.28-.13.51-.3.69-.53.19-.23.32-.5.41-.82.06-.23.09-.7.09-1.42v-5.49h.91v5.49c0,.81-.08,1.47-.24,1.97s-.48.94-.95,1.31-1.05.56-1.73.56c-.73,0-1.36-.18-1.88-.52-.52-.35-.87-.81-1.05-1.39-.11-.35-.17-.99-.17-1.92v-5.49Z"/>
      <polygon class="cls-1" points="150.45 37.45 155.65 37.45 155.65 38.34 151.35 38.34 151.35 41.19 155.62 41.19 155.62 42.08 151.35 42.08 151.35 45.65 155.62 45.65 155.62 46.54 150.45 46.54 150.45 37.45"/>
      <polygon class="cls-1" points="163.8 38.34 163.8 37.45 168.78 37.45 168.78 38.34 166.75 38.34 166.75 46.54 165.82 46.54 165.82 38.34 163.8 38.34"/>
      <path class="cls-1" d="M179.85,38.61c-.92-.93-2.08-1.38-3.45-1.38-.85,0-1.63.21-2.37.63-.73.42-1.3,1-1.72,1.75-.43.74-.64,1.56-.64,2.42,0,1.32.46,2.43,1.39,3.35.93.93,2.06,1.4,3.41,1.4s2.46-.47,3.39-1.4,1.38-2.05,1.38-3.38-.45-2.48-1.39-3.39ZM179.81,43.97c-.35.59-.81,1.06-1.41,1.4-.61.35-1.25.51-1.96.51-1.06,0-1.96-.36-2.71-1.11-.74-.74-1.12-1.66-1.12-2.74,0-.72.16-1.39.51-1.98.33-.6.8-1.07,1.41-1.41.6-.36,1.24-.53,1.91-.53s1.33.17,1.94.53c.62.34,1.08.81,1.43,1.39.33.59.5,1.24.5,1.96s-.17,1.39-.5,1.98Z"/>
      <path class="cls-1" d="M194.25,37.45h-.22l-4.28,9.09h1.01l1.41-2.99h3.92l1.43,2.99h.97l-4.24-9.09ZM192.58,42.68l1.56-3.29,1.55,3.29h-3.11Z"/>
      <polygon class="cls-1" points="201.2 37.45 202.19 37.45 205.2 44.47 208.26 37.45 209.25 37.45 205.3 46.54 205.1 46.54 201.2 37.45"/>
      <path class="cls-1" d="M216.48,37.45h-.22l-4.3,9.09h1.01l1.42-2.99h3.91l1.43,2.99h.98l-4.23-9.09ZM214.8,42.68l1.56-3.29,1.54,3.29h-3.1Z"/>
      <polygon class="cls-1" points="223.21 38.34 223.21 37.45 228.19 37.45 228.19 38.34 226.16 38.34 226.16 46.54 225.23 46.54 225.23 38.34 223.21 38.34"/>
      <path class="cls-1" d="M235.2,37.45h-.22l-4.3,9.09h1.01l1.42-2.99h3.91l1.43,2.99h.98l-4.23-9.09ZM233.52,42.68l1.56-3.29,1.54,3.29h-3.1Z"/>
      <path class="cls-1" d="M245.43,42.32c.75,0,1.35-.1,1.79-.29.42-.2.76-.47.99-.85.23-.38.36-.82.36-1.3,0-.61-.18-1.1-.52-1.51-.33-.4-.78-.67-1.31-.79-.36-.09-1.05-.13-2.05-.13h-1.81v9.09h.91v-4.22h.51l3.26,4.22h1.13l-3.26-4.22ZM243.79,41.43v-3.09h1.6c.62,0,1.07.05,1.34.17.27.11.48.29.64.53.17.25.25.52.25.84s-.08.59-.25.84c-.15.26-.39.44-.67.56-.29.11-.74.16-1.35.16h-1.56Z"/>
      <path class="cls-1" d="M251.55,44.85l.77-.46c.54,1,1.17,1.5,1.88,1.5.3,0,.59-.07.86-.21.27-.14.47-.33.61-.57.14-.24.21-.49.21-.76,0-.3-.1-.6-.31-.9-.28-.4-.8-.89-1.56-1.46-.76-.57-1.23-.99-1.41-1.24-.32-.43-.48-.89-.48-1.39,0-.4.09-.76.28-1.08.19-.33.46-.58.8-.77.34-.19.72-.28,1.12-.28.43,0,.83.11,1.2.32.37.21.77.6,1.18,1.17l-.74.56c-.34-.45-.63-.75-.87-.9-.24-.14-.5-.22-.79-.22-.37,0-.67.11-.9.33-.23.22-.35.5-.35.82,0,.2.04.39.12.57.08.19.23.39.45.61.12.12.51.42,1.17.91.79.58,1.33,1.1,1.62,1.55.29.45.44.91.44,1.37,0,.66-.25,1.23-.75,1.72-.5.49-1.11.73-1.83.73-.55,0-1.05-.15-1.5-.44-.45-.29-.86-.79-1.24-1.48Z"/>
    </g>
  </g>
  <g>
    <path class="cls-1" d="M11.46,21.31l-3.2,7.33s-.02-.03-.03-.05c-.11-.16-.21-.34-.3-.51-.19-.35-.37-.7-.53-1.06h0c-.09-.19-.17-.37-.23-.56-.08-.18-.15-.37-.22-.56s-.13-.38-.19-.59c-.06-.17-.1-.33-.15-.51,0-.01-.01-.03-.01-.04s-.01-.02-.01-.03h0c-.05-.19-.09-.38-.13-.57-.05-.2-.08-.41-.12-.61-.02-.12-.04-.23-.06-.35,0-.04,0-.08-.02-.12-.03-.25-.06-.5-.08-.76l-.03-.39v-.08c-.02-.26-.02-.52-.02-.78v-.22h.01c1.46-.02,3.28.08,5.32.46Z"/>
    <path class="cls-1" d="M6.87,16.53h-.02c.1-.3.21-.6.33-.9.32-.81.71-1.58,1.17-2.31.13-.21.26-.41.41-.61.1-.13.19-.28.31-.41,0-.03.02-.05.04-.07.01-.02.03-.05.06-.07.05-.08.12-.16.19-.24.06-.08.12-.15.19-.23-.01-.01,0-.01.01-.01.04-.06.09-.11.15-.17t.01-.02c.15-.17.3-.34.46-.51.32-.34.65-.66,1-.95.12-.11.24-.2.36-.29.08-.08.16-.14.25-.21.12-.1.25-.2.39-.29.5-.37,1.04-.7,1.59-1,.12-.06.24-.13.36-.19.25-.12.5-.24.76-.35.24-.11.48-.21.73-.31.01,0,.03,0,.04-.01.27-.1.53-.19.8-.26.27-.09.54-.16.81-.23.18-.04.36-.08.54-.11l-.03.08-4.55,10.4s-.05-.01-.07-.01c-2.36-.51-4.5-.7-6.29-.72Z"/>
    <path class="cls-1" d="M17.4,18.49l2.91-6.66,4.73,10.83c-2.61-1.93-5.22-3.26-7.64-4.17Z"/>
    <path class="cls-1" d="M29.14,32.95c-2.38,1.7-5.29,2.7-8.43,2.7-3.3,0-6.34-1.09-8.77-2.94-.19-.14-.38-.29-.56-.44l4.29-9.82c5.29,1.9,9.81,5.42,13.47,10.5Z"/>
    <path class="cls-1" d="M35.28,21.07v.07c0,.32,0,.63-.04.94-.02.34-.05.67-.1,1-.04.26-.08.52-.14.77-.01.12-.03.24-.07.36-.04.22-.09.43-.15.64,0,.05-.02.11-.04.16-.09.31-.19.62-.29.91-.1.3-.22.59-.33.88,0,0-.01,0-.01,0-.38.87-.84,1.7-1.37,2.48,0,.03-.04.05-.06.08L22.79,6.71l-.04-.08c.07.01.15.02.22.04.38.05.74.12,1.1.21.17.03.34.08.5.12.04.01.07.02.1.03.15.05.31.09.47.14,1.39.45,2.69,1.1,3.87,1.91.1.07.2.14.3.22.14.1.29.21.43.32.63.5,1.21,1.04,1.75,1.63.31.34.59.69.87,1.05,1.83,2.44,2.92,5.48,2.92,8.77Z"/>
    <path class="cls-1" d="M20.7,0C9.29,0,0,9.29,0,20.71,0,35.43,18.71,51.05,19.5,51.7l1.21,1,1.2-1c.8-.66,19.5-16.34,19.5-30.99C41.41,9.29,32.12,0,20.7,0ZM20.7,38.6c-9.64,0-17.45-7.82-17.45-17.46S11.06,3.68,20.7,3.68s17.46,7.82,17.46,17.46-7.81,17.46-17.46,17.46Z"/>
    <path class="cls-1" d="M11.46,21.31l-3.2,7.33s-.02-.03-.03-.05c-.11-.16-.21-.34-.3-.51-.19-.35-.37-.7-.53-1.06h0c-.09-.19-.17-.37-.23-.56-.08-.18-.15-.37-.22-.56s-.13-.38-.19-.59c-.06-.17-.1-.33-.15-.51,0-.01-.01-.03-.01-.04s-.01-.02-.01-.03h0c-.05-.19-.09-.38-.13-.57-.05-.2-.08-.41-.12-.61-.02-.12-.04-.23-.06-.35,0-.04,0-.08-.02-.12-.03-.25-.06-.5-.08-.76l-.03-.39v-.08c-.02-.26-.02-.52-.02-.78v-.22h.01c1.46-.02,3.28.08,5.32.46Z"/>
    <path class="cls-1" d="M6.87,16.53h-.02c.1-.3.21-.6.33-.9.32-.81.71-1.58,1.17-2.31.13-.21.26-.41.41-.61.1-.13.19-.28.31-.41,0-.03.02-.05.04-.07.01-.02.03-.05.06-.07.05-.08.12-.16.19-.24.06-.08.12-.15.19-.23-.01-.01,0-.01.01-.01.04-.06.09-.11.15-.17t.01-.02c.15-.17.3-.34.46-.51.32-.34.65-.66,1-.95.12-.11.24-.2.36-.29.08-.08.16-.14.25-.21.12-.1.25-.2.39-.29.5-.37,1.04-.7,1.59-1,.12-.06.24-.13.36-.19.25-.12.5-.24.76-.35.24-.11.48-.21.73-.31.01,0,.03,0,.04-.01.27-.1.53-.19.8-.26.27-.09.54-.16.81-.23.18-.04.36-.08.54-.11l-.03.08-4.55,10.4s-.05-.01-.07-.01c-2.36-.51-4.5-.7-6.29-.72Z"/>
    <path class="cls-1" d="M17.4,18.49l2.91-6.66,4.73,10.83c-2.61-1.93-5.22-3.26-7.64-4.17Z"/>
    <path class="cls-1" d="M29.14,32.95c-2.38,1.7-5.29,2.7-8.43,2.7-3.3,0-6.34-1.09-8.77-2.94-.19-.14-.38-.29-.56-.44l4.29-9.82c5.29,1.9,9.81,5.42,13.47,10.5Z"/>
    <path class="cls-1" d="M35.28,21.07v.07c0,.32,0,.63-.04.94-.02.34-.05.67-.1,1-.04.26-.08.52-.14.77-.01.12-.03.24-.07.36-.04.22-.09.43-.15.64,0,.05-.02.11-.04.16-.09.31-.19.62-.29.91-.1.3-.22.59-.33.88,0,0-.01,0-.01,0-.38.87-.84,1.7-1.37,2.48,0,.03-.04.05-.06.08L22.79,6.71l-.04-.08c.07.01.15.02.22.04.38.05.74.12,1.1.21.17.03.34.08.5.12.04.01.07.02.1.03.15.05.31.09.47.14,1.39.45,2.69,1.1,3.87,1.91.1.07.2.14.3.22.14.1.29.21.43.32.63.5,1.21,1.04,1.75,1.63.31.34.59.69.87,1.05,1.83,2.44,2.92,5.48,2.92,8.77Z"/>
    <g>
      <path class="cls-1" d="M11.46,21.31l-3.2,7.33s-.02-.03-.03-.05c-.11-.16-.21-.34-.3-.51-.19-.35-.37-.7-.53-1.06h0c-.09-.19-.17-.37-.23-.56-.08-.18-.15-.37-.22-.56s-.13-.38-.19-.59c-.06-.17-.1-.33-.15-.51,0-.01-.01-.03-.01-.04s-.01-.02-.01-.03h0c-.05-.19-.09-.38-.13-.57-.05-.2-.08-.41-.12-.61-.02-.12-.04-.23-.06-.35,0-.04,0-.08-.02-.12-.03-.25-.06-.5-.08-.76l-.03-.39v-.08c-.02-.26-.02-.52-.02-.78,0-.07,0-.15.01-.22,1.46-.02,3.28.08,5.32.46Z"/>
      <path class="cls-1" d="M13.16,17.25c-2.36-.51-4.5-.7-6.29-.72,1.63-4.89,5.78-8.63,10.91-9.67l-4.55,10.4s-.05-.01-.07-.01Z"/>
      <path class="cls-1" d="M17.4,18.49l2.91-6.66,4.73,10.83c-2.61-1.93-5.22-3.26-7.64-4.17Z"/>
      <path class="cls-1" d="M29.14,32.95c-2.38,1.7-5.29,2.7-8.43,2.7-3.3,0-6.34-1.09-8.77-2.94-.19-.14-.38-.29-.56-.44l4.29-9.82c5.29,1.9,9.81,5.42,13.47,10.5Z"/>
      <path class="cls-1" d="M35.28,21.07v.07c0,.32,0,.63-.04.94-.02.34-.05.67-.1,1-.04.26-.08.52-.14.77-.01.12-.03.24-.07.36-.04.22-.09.43-.15.64,0,.05-.02.11-.04.16-.09.31-.19.62-.29.91-.1.3-.22.59-.33.88,0,0-.01,0-.01,0-.38.87-.84,1.7-1.37,2.48,0,.03-.04.05-.06.08L22.79,6.71c7.04,1.01,12.46,7.05,12.49,14.36Z"/>
      <g>
        <path class="cls-1" d="M6.14,20.85h-.01v.22c0,.26,0,.52.02.78v.08l.03.39c.02.26.05.51.08.76.01.04.01.08.02.12.02.12.04.23.06.35.04.2.07.41.12.61.04.19.08.38.13.56h0s.01.03.01.04.01.03.01.04c.05.18.09.34.15.51.06.21.12.4.19.59s.14.38.22.56c.06.19.14.37.23.55h0c.16.37.34.72.53,1.07.09.17.19.35.3.51,0,.02.02.03.03.05l3.2-7.33c-2.04-.38-3.86-.48-5.32-.46ZM15.67,22.45l-4.29,9.82c.18.15.37.3.56.44,2.43,1.85,5.47,2.94,8.77,2.94s6.05-1,8.43-2.7c-3.66-5.08-8.18-8.6-13.47-10.5Z"/>
        <path class="cls-1" d="M17.27,6.89c-.27.07-.54.14-.81.23-.27.07-.53.16-.8.26-.01.01-.03.01-.04.01-.25.1-.49.2-.73.31-.26.11-.51.23-.76.35-.12.06-.24.13-.36.19-.55.3-1.09.63-1.59,1-.14.09-.27.19-.39.29-.09.07-.17.13-.25.21-.12.09-.24.18-.36.29-.35.29-.68.61-1,.95-.16.17-.31.34-.46.51t-.01.02c-.06.06-.11.11-.15.17-.01,0-.02,0-.01.01-.07.08-.13.15-.19.23-.07.08-.14.16-.19.24-.03.02-.05.05-.06.07-.02.02-.04.04-.04.07-.12.13-.21.28-.31.41-.15.2-.28.4-.41.61-.46.73-.85,1.5-1.17,2.31-.12.3-.23.6-.33.9h.02c1.79.02,3.93.21,6.29.72.02,0,.04.01.07.01l4.55-10.4.03-.08c-.18.03-.36.07-.54.11ZM20.31,11.83l-2.91,6.66c2.42.91,5.03,2.24,7.64,4.17l-4.73-10.83ZM32.36,12.3c-.28-.36-.56-.71-.87-1.05-.54-.59-1.12-1.13-1.75-1.63-.14-.11-.29-.22-.43-.32-.1-.08-.2-.15-.3-.22-1.18-.81-2.48-1.46-3.87-1.91-.16-.05-.32-.09-.47-.14-.03-.01-.06-.02-.1-.03-.16-.04-.33-.09-.5-.12-.36-.09-.72-.16-1.1-.21-.07-.02-.15-.03-.22-.04l.04.08,9.89,22.66s.05-.05.06-.08c.53-.78.99-1.61,1.37-2.48,0,0,.01,0,.01,0,.11-.29.23-.58.33-.88.1-.29.2-.6.29-.91.02-.05.03-.11.04-.16.06-.21.11-.42.15-.64.04-.12.06-.24.07-.36.06-.25.1-.51.14-.77.05-.33.08-.66.1-1,.03-.31.04-.62.04-.94v-.07c0-3.29-1.09-6.33-2.92-8.77Z"/>
      </g>
    </g>
  </g>
</svg>