<?xml version="1.0" encoding="UTF-8"?>
<svg id="Layer_1" data-name="Layer 1" xmlns="http://www.w3.org/2000/svg" xmlns:xlink="http://www.w3.org/1999/xlink" viewBox="0 0 266.1 52.7">
  <defs>
    <style>
      .cls-1 {
        fill: url(#linear-gradient-2);
      }

      .cls-2 {
        fill: #fff;
      }

      .cls-3 {
        fill: url(#New_Gradient_Swatch_copy_2);
      }

      .cls-4 {
        fill: url(#linear-gradient-3);
      }

      .cls-5 {
        fill: url(#linear-gradient);
      }
    </style>
    <linearGradient id="New_Gradient_Swatch_copy_2" data-name="New Gradient Swatch copy 2" x1="157.79" y1="46.85" x2="157.79" y2="1.29" gradientUnits="userSpaceOnUse">
      <stop offset=".32" stop-color="#bcbcbc"/>
      <stop offset=".52" stop-color="#fff"/>
      <stop offset=".69" stop-color="#bcbcbc"/>
      <stop offset="1" stop-color="#bcbcbc"/>
    </linearGradient>
    <linearGradient id="linear-gradient" x1="6.67" y1="34.68" x2="39" y2="8.8" gradientUnits="userSpaceOnUse">
      <stop offset="0" stop-color="#29aa59"/>
      <stop offset=".28" stop-color="#06d787"/>
      <stop offset=".73" stop-color="#00ce72"/>
      <stop offset="1" stop-color="#50a28e"/>
    </linearGradient>
    <linearGradient id="linear-gradient-2" x1="5.52" y1="23.52" x2="26.14" y2="33.73" gradientUnits="userSpaceOnUse">
      <stop offset="0" stop-color="#00dd8e"/>
      <stop offset=".97" stop-color="#29aa59"/>
    </linearGradient>
    <linearGradient id="linear-gradient-3" x1="11.02" y1="8.26" x2="34.78" y2="23.88" gradientUnits="userSpaceOnUse">
      <stop offset="0" stop-color="#00d67a"/>
      <stop offset=".97" stop-color="#4b776a"/>
    </linearGradient>
  </defs>
  <path class="cls-3" d="M261.81,29.17h-.66v-3.23h2.03c.73,0,1.23.35,1.23,1.02,0,.49-.29.82-.75.95l.82,1.26h-.76l-.76-1.2h-1.15v1.2ZM263.14,27.42c.39,0,.61-.17.61-.45s-.22-.46-.61-.46h-1.33v.91h1.33ZM262.6,31.05c-1.93,0-3.5-1.57-3.5-3.5s1.57-3.5,3.5-3.5,3.5,1.57,3.5,3.5-1.57,3.5-3.5,3.5ZM262.6,24.52c-1.68,0-3.04,1.36-3.04,3.04s1.36,3.04,3.04,3.04,3.04-1.36,3.04-3.04-1.36-3.04-3.04-3.04ZM50.12,24.46c0-3.76,3.11-6.02,8.27-6.63l9.33-1.11v-.16c0-2.05-1.8-3.6-5.81-3.6-3.32,0-6.22,1.51-7.04,3.6l-4.05-1.8c1.35-3.6,6.06-5.97,11.25-5.97,6.63,0,10.4,2.74,10.4,7.86v9.04c0,1.23.57,1.76,3.19,1.19v3.81c-4.58.94-6.67-.78-7.37-2.91-1.92,1.96-5.24,3.36-9.25,3.36-4.95,0-8.92-2.25-8.92-6.67ZM67.72,20.57l-8.51,1.02c-2.86.33-4.3,1.02-4.3,2.82s1.72,2.74,4.54,2.74c3.68,0,8.27-1.64,8.27-4.79v-1.8ZM84.87,30.68l-10.68-21.49h5.44l7.78,16.08,7.74-16.08h5.32l-10.64,21.49h-4.95ZM99.85,24.46c0-3.76,3.11-6.02,8.27-6.63l9.33-1.11v-.16c0-2.05-1.8-3.6-5.81-3.6-3.31,0-6.22,1.51-7.04,3.6l-4.05-1.8c1.35-3.6,6.06-5.97,11.25-5.97,6.63,0,10.4,2.74,10.4,7.86v9.04c0,1.23.57,1.76,3.19,1.19v3.81c-4.58.94-6.67-.78-7.37-2.91-1.92,1.96-5.24,3.36-9.25,3.36-4.95,0-8.92-2.25-8.92-6.67ZM117.45,20.57l-8.51,1.02c-2.86.33-4.3,1.02-4.3,2.82s1.72,2.74,4.54,2.74c3.68,0,8.27-1.64,8.27-4.79v-1.8ZM127.93,9.19h4.91v2.82c1.51-1.76,4.22-3.23,7.94-3.23,5.98,0,9.33,4.17,9.33,10.19v11.7h-4.91v-10.89c0-3.81-1.96-6.51-5.93-6.51-4.17,0-6.43,2.62-6.43,6.59v10.8h-4.91V9.19ZM172.99,22.53l3.93,2.09c-1.31,3.36-5.36,6.51-11.13,6.51-7.16,0-12.4-4.54-12.4-11.17s5.08-11.17,12.4-11.17,11.54,4.71,11.54,10.89v1.72h-19.28c.65,3.44,3.72,5.57,7.74,5.57,3.56,0,6.18-1.8,7.2-4.42ZM158.26,17.7h14.32c-.33-2.25-2.99-4.83-7.04-4.83-3.4,0-6.34,1.68-7.29,4.83ZM198.08,9.19l5.52,15.39,5.57-15.39h5.03l-8.43,21.49h-4.26l-5.65-15.02-5.61,15.02h-4.26l-8.47-21.49h5.2l5.69,15.39,5.48-15.39h4.17ZM213.8,24.74h5.93v5.93h-5.93v-5.93ZM222.4,24.46c0-3.76,3.11-6.02,8.27-6.63l9.33-1.11v-.16c0-2.05-1.8-3.6-5.81-3.6-3.32,0-6.22,1.51-7.04,3.6l-4.05-1.8c1.35-3.6,6.06-5.97,11.25-5.97,6.63,0,10.4,2.74,10.4,7.86v9.04c0,1.23.57,1.76,3.19,1.19v3.81c-4.58.94-6.67-.78-7.37-2.91-1.92,1.96-5.24,3.36-9.25,3.36-4.95,0-8.92-2.25-8.92-6.67ZM239.99,20.57l-8.51,1.02c-2.86.33-4.3,1.02-4.3,2.82s1.72,2.74,4.54,2.74c3.68,0,8.27-1.64,8.27-4.79v-1.8ZM250.39,1.29h5.07v5.03h-5.07V1.29ZM255.38,30.68h-4.91V9.19h4.91v21.49ZM49.49,37.54h1.04l2.32,3.75,2.29-3.75h1.05l-2.88,4.74v4.34h-.9v-4.34l-2.93-4.74ZM64,37.31c1.38,0,2.53.46,3.45,1.38.93.92,1.39,2.05,1.39,3.39s-.46,2.46-1.39,3.38c-.92.93-2.05,1.39-3.38,1.39s-2.48-.46-3.41-1.38c-.93-.92-1.39-2.04-1.39-3.35,0-.87.21-1.68.63-2.43.42-.74,1-1.33,1.73-1.75s1.52-.63,2.37-.63ZM64.04,38.19c-.67,0-1.31.18-1.91.53s-1.07.82-1.41,1.41c-.34.59-.51,1.25-.51,1.98,0,1.08.37,1.99,1.12,2.73.75.74,1.65,1.12,2.71,1.12.7,0,1.36-.17,1.96-.51.6-.34,1.07-.81,1.4-1.4.34-.59.5-1.25.5-1.98s-.17-1.37-.5-1.96c-.34-.58-.81-1.05-1.42-1.4s-1.26-.53-1.94-.53ZM72.68,37.54h.91v5.48c0,.65.01,1.06.04,1.22.05.36.15.66.31.9.16.24.42.44.76.6.34.16.69.24,1.03.24.3,0,.59-.06.86-.19.28-.13.51-.3.69-.53.19-.23.32-.5.41-.82.06-.23.09-.7.09-1.42v-5.48h.91v5.48c0,.81-.08,1.47-.24,1.97s-.48.94-.95,1.31-1.05.56-1.73.56c-.73,0-1.36-.18-1.88-.52-.52-.35-.87-.81-1.05-1.39-.11-.35-.17-.99-.17-1.91v-5.48ZM82.96,37.54h1.81c1.01,0,1.69.04,2.05.12.54.12.98.39,1.31.79s.51.91.51,1.5c0,.49-.12.93-.35,1.3-.23.37-.57.66-1,.85s-1.03.29-1.79.29l3.27,4.22h-1.12l-3.27-4.22h-.51v4.22h-.91v-9.08ZM83.87,38.43v3.09h1.56c.61.01,1.05-.05,1.35-.16.29-.12.52-.3.68-.55.16-.25.24-.54.24-.85s-.08-.58-.25-.83c-.16-.25-.38-.43-.65-.53-.27-.11-.71-.16-1.34-.16h-1.6ZM101.76,37.54l4.23,9.08h-.98l-1.43-2.99h-3.91l-1.41,2.99h-1.01l4.29-9.08h.22ZM101.65,39.47l-1.56,3.29h3.1l-1.55-3.29ZM108.7,37.54h.99l3.01,7.02,3.06-7.02h.99l-3.95,9.08h-.2l-3.9-9.08ZM120.26,37.54h5.2v.89h-4.3v2.85h4.26v.89h-4.26v3.57h4.26v.89h-5.17v-9.08ZM129.02,46.62v-9.08h.2l6.04,6.96v-6.96h.89v9.08h-.2l-5.99-6.88v6.88h-.94ZM140.38,37.54h.91v5.48c0,.65.01,1.06.04,1.22.05.36.15.66.31.9.16.24.42.44.76.6.34.16.69.24,1.03.24.3,0,.59-.06.86-.19.28-.13.51-.3.69-.53.19-.23.32-.5.41-.82.06-.23.09-.7.09-1.42v-5.48h.91v5.48c0,.81-.08,1.47-.24,1.97s-.48.94-.95,1.31-1.05.56-1.73.56c-.73,0-1.36-.18-1.88-.52-.52-.35-.87-.81-1.05-1.39-.11-.35-.17-.99-.17-1.91v-5.48ZM150.62,37.54h5.2v.89h-4.3v2.85h4.26v.89h-4.26v3.57h4.26v.89h-5.17v-9.08ZM163.96,38.43v-.89h4.98v.89h-2.03v8.19h-.93v-8.19h-2.02ZM176.55,37.31c1.38,0,2.53.46,3.45,1.38.93.92,1.39,2.05,1.39,3.39s-.46,2.46-1.39,3.38c-.92.93-2.05,1.39-3.38,1.39s-2.48-.46-3.41-1.38c-.93-.92-1.39-2.04-1.39-3.35,0-.87.21-1.68.63-2.43.42-.74,1-1.33,1.73-1.75s1.52-.63,2.37-.63ZM176.59,38.19c-.67,0-1.31.18-1.91.53s-1.07.82-1.41,1.41c-.34.59-.51,1.25-.51,1.98,0,1.08.37,1.99,1.12,2.73.75.74,1.65,1.12,2.71,1.12.7,0,1.36-.17,1.96-.51.6-.34,1.07-.81,1.4-1.4.34-.59.5-1.25.5-1.98s-.17-1.37-.5-1.96c-.34-.58-.81-1.05-1.42-1.4s-1.26-.53-1.94-.53ZM194.4,37.54l4.23,9.08h-.98l-1.43-2.99h-3.91l-1.41,2.99h-1.01l4.29-9.08h.22ZM194.28,39.47l-1.56,3.29h3.1l-1.55-3.29ZM201.33,37.54h.99l3.01,7.02,3.06-7.02h.99l-3.95,9.08h-.2l-3.9-9.08ZM216.6,37.54l4.23,9.08h-.98l-1.43-2.99h-3.91l-1.41,2.99h-1.01l4.29-9.08h.22ZM216.48,39.47l-1.56,3.29h3.1l-1.55-3.29ZM223.32,38.43v-.89h4.98v.89h-2.03v8.19h-.93v-8.19h-2.02ZM235.3,37.54l4.23,9.08h-.98l-1.43-2.99h-3.91l-1.41,2.99h-1.01l4.29-9.08h.22ZM235.19,39.47l-1.56,3.29h3.1l-1.55-3.29ZM242.98,37.54h1.81c1.01,0,1.69.04,2.05.12.54.12.98.39,1.31.79s.51.91.51,1.5c0,.49-.12.93-.35,1.3-.23.37-.57.66-1,.85s-1.03.29-1.79.29l3.27,4.22h-1.12l-3.27-4.22h-.51v4.22h-.91v-9.08ZM243.89,38.43v3.09h1.56c.61.01,1.05-.05,1.35-.16.29-.12.52-.3.68-.55.16-.25.24-.54.24-.85s-.08-.58-.25-.83c-.16-.25-.38-.43-.65-.53-.27-.11-.71-.16-1.34-.16h-1.6ZM251.65,44.93l.77-.46c.54,1,1.17,1.5,1.88,1.5.3,0,.59-.07.86-.21.27-.14.47-.33.61-.57.14-.24.21-.49.21-.76,0-.3-.1-.6-.31-.9-.28-.4-.8-.89-1.56-1.46-.76-.57-1.23-.99-1.41-1.24-.32-.43-.48-.89-.48-1.39,0-.39.09-.75.28-1.08.19-.32.46-.58.8-.77.34-.19.72-.28,1.12-.28.43,0,.83.11,1.2.32.37.21.77.6,1.18,1.17l-.74.56c-.34-.45-.63-.75-.87-.9-.24-.14-.5-.22-.79-.22-.37,0-.67.11-.9.33-.23.22-.35.5-.35.82,0,.2.04.39.12.57.08.19.23.39.45.6.12.12.51.42,1.17.91.79.58,1.33,1.1,1.62,1.55.29.45.44.91.44,1.36,0,.66-.25,1.23-.75,1.72-.5.49-1.11.73-1.82.73-.55,0-1.05-.15-1.5-.44-.45-.29-.86-.79-1.24-1.48Z"/>
  <g>
    <path class="cls-5" d="M20.7,0C9.29,0,0,9.29,0,20.7c0,14.73,18.71,30.34,19.5,31l1.21,1,1.2-1c.8-.66,19.5-16.34,19.5-30.99C41.41,9.29,32.12,0,20.7,0Z"/>
    <circle class="cls-2" cx="20.7" cy="21.13" r="17.46"/>
    <g>
      <circle class="cls-2" cx="20.7" cy="21.13" r="14.58"/>
      <g>
        <path class="cls-1" d="M11.46,21.3l-3.2,7.33s-.02-.03-.03-.05c-.11-.17-.2-.34-.3-.51-.19-.35-.37-.7-.53-1.06h0c-.08-.19-.16-.37-.23-.55-.08-.19-.14-.37-.21-.56-.07-.19-.13-.39-.2-.59-.06-.18-.1-.37-.15-.56,0,0-.01-.02-.01-.03-.05-.19-.09-.38-.13-.57-.05-.2-.08-.4-.12-.6-.03-.16-.06-.31-.08-.47-.03-.25-.06-.51-.08-.76-.01-.15-.03-.31-.03-.47-.01-.26-.02-.52-.02-.78,0-.07,0-.14,0-.21,1.46-.02,3.29.08,5.33.46ZM15.67,22.44l-4.29,9.82c.18.15.37.3.56.44,2.43,1.84,5.47,2.93,8.77,2.93s6.05-1,8.43-2.69c-3.66-5.09-8.18-8.61-13.47-10.51Z"/>
        <path class="cls-4" d="M13.16,17.24c-2.36-.51-4.52-.69-6.31-.72.1-.31.21-.61.33-.91.32-.81.71-1.58,1.17-2.31.13-.21.26-.41.41-.61.1-.13.19-.28.31-.41,0-.03.03-.05.05-.07,0-.02.03-.05.06-.07.06-.08.12-.16.19-.24.06-.08.12-.16.19-.23,0,0,0,0,0-.01.04-.06.09-.11.15-.17,0,0,0-.01.01-.02.14-.17.3-.34.46-.51.32-.34.65-.66,1-.96.12-.1.24-.2.35-.29.08-.08.17-.14.25-.2.12-.1.26-.2.39-.29.51-.37,1.04-.71,1.59-1,.12-.06.24-.12.36-.19.25-.13.5-.24.76-.35.24-.11.48-.21.73-.31.01,0,.03,0,.04-.01.26-.1.53-.19.8-.26.27-.08.54-.16.81-.22.18-.04.36-.08.54-.12l-4.58,10.49s-.05-.01-.07-.02ZM25.04,22.66l-4.73-10.84-2.91,6.67c2.42.91,5.04,2.23,7.65,4.17ZM32.36,12.29c-.28-.36-.56-.71-.87-1.05-.54-.59-1.12-1.14-1.75-1.63-.14-.11-.28-.22-.43-.32-.1-.08-.19-.15-.3-.22-1.18-.82-2.48-1.47-3.87-1.91-.15-.05-.31-.1-.46-.14-.03-.01-.06-.02-.1-.03-.17-.05-.33-.09-.51-.12-.36-.09-.72-.16-1.09-.21-.08-.01-.15-.03-.23-.04l9.94,22.75s.04-.06.06-.09c.71-1.03,1.28-2.16,1.71-3.36.1-.3.2-.6.29-.91.35-1.25.54-2.58.54-3.94,0-3.29-1.1-6.33-2.93-8.77Z"/>
      </g>
    </g>
  </g>
</svg>